<?xml version="1.0" standalone="no"?>
<!DOCTYPE svg PUBLIC "-//W3C//DTD SVG 20010904//EN"
 "http://www.w3.org/TR/2001/REC-SVG-20010904/DTD/svg10.dtd">
<svg version="1.0" xmlns="http://www.w3.org/2000/svg"
 width="260.000000pt" height="260.000000pt" viewBox="0 0 260.000000 260.000000"
 preserveAspectRatio="xMidYMid meet">
<metadata>
Created by potrace 1.14, written by Peter Selinger 2001-2017
</metadata>
<g transform="translate(0.000000,260.000000) scale(0.100000,-0.100000)"
fill="#000000" stroke="none">
<path d="M265 2579 c-117 -37 -208 -130 -245 -248 -19 -61 -20 -90 -20 -1031
0 -941 1 -970 20 -1031 38 -120 129 -211 249 -249 61 -19 90 -20 1031 -20 941
0 970 1 1031 20 120 38 211 129 249 249 19 61 20 90 20 1031 0 941 -1 970 -20
1031 -38 120 -129 211 -249 249 -61 19 -89 20 -1035 19 -934 0 -973 -1 -1031
-20z m1910 -1274 c162 -217 295 -397 295 -400 0 -7 -741 -6 -975 2 l-198 6
-191 258 c-291 392 -376 508 -376 513 0 10 108 12 622 14 l527 2 296 -395z
m-1435 231 c0 -10 -22 -46 -48 -80 -27 -33 -128 -170 -225 -302 -97 -133 -184
-244 -193 -248 -26 -10 -146 -7 -142 4 2 5 124 170 272 367 l269 356 34 -39
c18 -21 33 -47 33 -58z"/>
</g>
</svg>
