<?xml version="1.0" encoding="UTF-8"?><svg id="Layer_2" xmlns="http://www.w3.org/2000/svg" viewBox="0 0 40 40"><g id="Layer_2-2"><rect width="40" height="40" rx="6" ry="6" style="fill:#000; stroke-width:0px;"/><path d="M38.03,26.08c-.16,0-.25,0-.34,0-5.79-.02-11.57-.04-17.36-.05-.21,0-.34-.06-.48-.24-1.01-1.37-2.03-2.72-3.05-4.09-.76-1.03-1.52-2.06-2.28-3.1-.55-.75-1.07-1.52-1.62-2.26-.55-.74-1.12-1.45-1.67-2.18-.03-.04-.05-.09-.1-.2.13,0,.23,0,.33,0,5.73-.01,11.46-.02,17.19-.04.21,0,.35.06.48.24,1.86,2.51,3.72,5.01,5.59,7.51,1.04,1.39,2.09,2.76,3.13,4.14.05.06.09.13.18.26Z" style="fill:#fff; stroke-width:0px;"/><path d="M1.97,26.04c2.81-3.73,5.59-7.42,8.4-11.14.16.2.3.37.44.55.21.26.42.51.61.79.05.07.04.22,0,.29-.62.82-1.26,1.63-1.87,2.46-.59.8-1.16,1.61-1.75,2.41-.75,1.02-1.5,2.03-2.25,3.05-.35.47-.7.93-1.04,1.41-.1.14-.21.21-.39.2-.69,0-1.39,0-2.15,0Z" style="fill:#fff; stroke-width:0px;"/></g></svg>